<svg xmlns="http://www.w3.org/2000/svg" viewBox="0 0 200 60" width="200" height="60">
  <defs>
    <linearGradient id="agrad" x1="0%" y1="0%" x2="100%" y2="100%">
      <stop offset="0%" stop-color="#2563eb"/>
      <stop offset="100%" stop-color="#1e40af"/>
    </linearGradient>
  </defs>
  <!-- Letter A -->
  <polygon points="20,55 35,5 55,5 70,55 55,55 52,45 38,45 35,55" fill="url(#agrad)"/>
  <polygon points="40,20 45,35 50,35 45,20" fill="#ffffff"/>
  <!-- Pixel dots right side -->
  <rect x="78" y="12" width="6" height="6" rx="1" fill="#2563eb" opacity="0.9"/>
  <rect x="88" y="12" width="6" height="6" rx="1" fill="#3b82f6" opacity="0.8"/>
  <rect x="98" y="12" width="6" height="6" rx="1" fill="#60a5fa" opacity="0.7"/>
  <rect x="108" y="12" width="6" height="6" rx="1" fill="#93c5fd" opacity="0.6"/>

  <rect x="78" y="24" width="6" height="6" rx="1" fill="#1d4ed8" opacity="0.9"/>
  <rect x="88" y="24" width="6" height="6" rx="1" fill="#2563eb" opacity="0.8"/>
  <rect x="98" y="24" width="6" height="6" rx="1" fill="#3b82f6" opacity="0.7"/>
  <rect x="108" y="24" width="6" height="6" rx="1" fill="#60a5fa" opacity="0.6"/>
  <rect x="118" y="24" width="6" height="6" rx="1" fill="#93c5fd" opacity="0.5"/>

  <rect x="78" y="36" width="6" height="6" rx="1" fill="#1e3a8a" opacity="0.9"/>
  <rect x="88" y="36" width="6" height="6" rx="1" fill="#1d4ed8" opacity="0.8"/>
  <rect x="98" y="36" width="6" height="6" rx="1" fill="#2563eb" opacity="0.7"/>
  <rect x="108" y="36" width="6" height="6" rx="1" fill="#3b82f6" opacity="0.6"/>
  <rect x="118" y="36" width="6" height="6" rx="1" fill="#60a5fa" opacity="0.5"/>
  <rect x="128" y="36" width="6" height="6" rx="1" fill="#93c5fd" opacity="0.4"/>

  <rect x="78" y="48" width="6" height="6" rx="1" fill="#172554" opacity="0.9"/>
  <rect x="88" y="48" width="6" height="6" rx="1" fill="#1e3a8a" opacity="0.8"/>
  <rect x="98" y="48" width="6" height="6" rx="1" fill="#1d4ed8" opacity="0.7"/>
  <rect x="108" y="48" width="6" height="6" rx="1" fill="#2563eb" opacity="0.6"/>
  <rect x="118" y="48" width="6" height="6" rx="1" fill="#3b82f6" opacity="0.5"/>
  <rect x="128" y="48" width="6" height="6" rx="1" fill="#60a5fa" opacity="0.4"/>
  <rect x="138" y="48" width="6" height="6" rx="1" fill="#93c5fd" opacity="0.3"/>
</svg>